<svg id="Layer_3" data-name="Layer 3" xmlns="http://www.w3.org/2000/svg" viewBox="0 0 56.49 30.72"><defs><style>.cls-1{fill:#5e0004;}</style></defs><path class="cls-1" d="M793.13,694.09a16.93,16.93,0,0,0,10.74,5.64c2.61.35,5.43,0,7.73,1.6,1.94,1.35,3.73,2.94,5.53,4.48,1.47,1.26,2.86,2.6,4.09,3.72-1.29,1.26-2.75,2.64-4.14,4.09-2.15,2.23-4.3,4.44-7.51,5-1.63.29-3.3.41-5,.59a16.76,16.76,0,0,0-11.24,5.57h-.72A16.73,16.73,0,0,0,781,719.28c-4.43-.21-8.22-1.5-11.25-4.88-1.59-1.78-3.41-3.35-5-4.92.87-.74,1.9-1.55,2.84-2.45,1.23-1.18,2.38-2.46,3.6-3.65a11.11,11.11,0,0,1,7.58-3.34,19.7,19.7,0,0,0,12.07-4.18,25.41,25.41,0,0,0,1.83-1.77Z" transform="translate(-764.73 -694.09)"/></svg>